<mxfile host="drawio-plugin" modified="2024-05-24T23:38:02.693Z" agent="Mozilla/5.0 (Windows NT 10.0; Win64; x64) AppleWebKit/537.36 (KHTML, like Gecko) Chrome/122.0.0.0 Safari/537.36" etag="xe39UJtML_uTx4ETD58f" version="22.1.22" type="embed">
  <diagram id="23iRSUPoRavnBvh4doch" name="Page-1">
    <mxGraphModel dx="1674" dy="1126" grid="1" gridSize="10" guides="1" tooltips="1" connect="1" arrows="1" fold="1" page="1" pageScale="1" pageWidth="1169" pageHeight="827" math="0" shadow="0">
      <root>
        <mxCell id="0" />
        <mxCell id="1" parent="0" />
        <mxCell id="3" value="" style="rounded=0;whiteSpace=wrap;html=1;" vertex="1" parent="1">
          <mxGeometry width="1160" height="820" as="geometry" />
        </mxCell>
        <mxCell id="48" value="" style="shape=table;startSize=0;container=1;collapsible=0;childLayout=tableLayout;rounded=0;align=center;verticalAlign=middle;fontFamily=Helvetica;fontSize=20;fontColor=default;fillColor=none;gradientColor=none;html=1;strokeWidth=3;" vertex="1" parent="1">
          <mxGeometry x="690" y="200" width="450" height="480" as="geometry" />
        </mxCell>
        <mxCell id="49" value="" style="shape=tableRow;horizontal=0;startSize=0;swimlaneHead=0;swimlaneBody=0;strokeColor=inherit;top=0;left=0;bottom=0;right=0;collapsible=0;dropTarget=0;fillColor=none;points=[[0,0.5],[1,0.5]];portConstraint=eastwest;rounded=0;align=center;verticalAlign=middle;fontFamily=Helvetica;fontSize=20;fontColor=default;html=1;" vertex="1" parent="48">
          <mxGeometry width="450" height="40" as="geometry" />
        </mxCell>
        <mxCell id="50" value="Life In Technicolour - Coldplay.mp3" style="shape=partialRectangle;html=1;whiteSpace=wrap;connectable=0;strokeColor=inherit;overflow=hidden;fillColor=#45A7D9;top=0;left=0;bottom=0;right=0;pointerEvents=1;rounded=0;align=left;verticalAlign=middle;fontFamily=Helvetica;fontSize=20;fontColor=#FFFFFF;spacingLeft=6;" vertex="1" parent="49">
          <mxGeometry width="450" height="40" as="geometry">
            <mxRectangle width="450" height="40" as="alternateBounds" />
          </mxGeometry>
        </mxCell>
        <mxCell id="51" value="" style="shape=tableRow;horizontal=0;startSize=0;swimlaneHead=0;swimlaneBody=0;strokeColor=inherit;top=0;left=0;bottom=0;right=0;collapsible=0;dropTarget=0;fillColor=none;points=[[0,0.5],[1,0.5]];portConstraint=eastwest;rounded=0;align=center;verticalAlign=middle;fontFamily=Helvetica;fontSize=20;fontColor=default;html=1;" vertex="1" parent="48">
          <mxGeometry y="40" width="450" height="40" as="geometry" />
        </mxCell>
        <mxCell id="52" value="" style="shape=partialRectangle;html=1;whiteSpace=wrap;connectable=0;strokeColor=inherit;overflow=hidden;fillColor=none;top=0;left=0;bottom=0;right=0;pointerEvents=1;rounded=0;align=center;verticalAlign=middle;fontFamily=Helvetica;fontSize=20;fontColor=default;" vertex="1" parent="51">
          <mxGeometry width="450" height="40" as="geometry">
            <mxRectangle width="450" height="40" as="alternateBounds" />
          </mxGeometry>
        </mxCell>
        <mxCell id="53" value="" style="shape=tableRow;horizontal=0;startSize=0;swimlaneHead=0;swimlaneBody=0;strokeColor=inherit;top=0;left=0;bottom=0;right=0;collapsible=0;dropTarget=0;fillColor=none;points=[[0,0.5],[1,0.5]];portConstraint=eastwest;rounded=0;align=center;verticalAlign=middle;fontFamily=Helvetica;fontSize=20;fontColor=default;html=1;" vertex="1" parent="48">
          <mxGeometry y="80" width="450" height="40" as="geometry" />
        </mxCell>
        <mxCell id="54" value="" style="shape=partialRectangle;html=1;whiteSpace=wrap;connectable=0;strokeColor=inherit;overflow=hidden;fillColor=none;top=0;left=0;bottom=0;right=0;pointerEvents=1;rounded=0;align=center;verticalAlign=middle;fontFamily=Helvetica;fontSize=20;fontColor=default;" vertex="1" parent="53">
          <mxGeometry width="450" height="40" as="geometry">
            <mxRectangle width="450" height="40" as="alternateBounds" />
          </mxGeometry>
        </mxCell>
        <mxCell id="55" value="" style="shape=tableRow;horizontal=0;startSize=0;swimlaneHead=0;swimlaneBody=0;strokeColor=inherit;top=0;left=0;bottom=0;right=0;collapsible=0;dropTarget=0;fillColor=none;points=[[0,0.5],[1,0.5]];portConstraint=eastwest;rounded=0;align=center;verticalAlign=middle;fontFamily=Helvetica;fontSize=20;fontColor=default;html=1;" vertex="1" parent="48">
          <mxGeometry y="120" width="450" height="40" as="geometry" />
        </mxCell>
        <mxCell id="56" value="" style="shape=partialRectangle;html=1;whiteSpace=wrap;connectable=0;strokeColor=inherit;overflow=hidden;fillColor=none;top=0;left=0;bottom=0;right=0;pointerEvents=1;rounded=0;align=center;verticalAlign=middle;fontFamily=Helvetica;fontSize=20;fontColor=default;" vertex="1" parent="55">
          <mxGeometry width="450" height="40" as="geometry">
            <mxRectangle width="450" height="40" as="alternateBounds" />
          </mxGeometry>
        </mxCell>
        <mxCell id="57" value="" style="shape=tableRow;horizontal=0;startSize=0;swimlaneHead=0;swimlaneBody=0;strokeColor=inherit;top=0;left=0;bottom=0;right=0;collapsible=0;dropTarget=0;fillColor=none;points=[[0,0.5],[1,0.5]];portConstraint=eastwest;rounded=0;align=center;verticalAlign=middle;fontFamily=Helvetica;fontSize=20;fontColor=default;html=1;" vertex="1" parent="48">
          <mxGeometry y="160" width="450" height="40" as="geometry" />
        </mxCell>
        <mxCell id="58" value="" style="shape=partialRectangle;html=1;whiteSpace=wrap;connectable=0;strokeColor=inherit;overflow=hidden;fillColor=none;top=0;left=0;bottom=0;right=0;pointerEvents=1;rounded=0;align=center;verticalAlign=middle;fontFamily=Helvetica;fontSize=20;fontColor=default;" vertex="1" parent="57">
          <mxGeometry width="450" height="40" as="geometry">
            <mxRectangle width="450" height="40" as="alternateBounds" />
          </mxGeometry>
        </mxCell>
        <mxCell id="59" value="" style="shape=tableRow;horizontal=0;startSize=0;swimlaneHead=0;swimlaneBody=0;strokeColor=inherit;top=0;left=0;bottom=0;right=0;collapsible=0;dropTarget=0;fillColor=none;points=[[0,0.5],[1,0.5]];portConstraint=eastwest;rounded=0;align=center;verticalAlign=middle;fontFamily=Helvetica;fontSize=20;fontColor=default;html=1;" vertex="1" parent="48">
          <mxGeometry y="200" width="450" height="40" as="geometry" />
        </mxCell>
        <mxCell id="60" value="" style="shape=partialRectangle;html=1;whiteSpace=wrap;connectable=0;strokeColor=inherit;overflow=hidden;fillColor=none;top=0;left=0;bottom=0;right=0;pointerEvents=1;rounded=0;align=center;verticalAlign=middle;fontFamily=Helvetica;fontSize=20;fontColor=default;" vertex="1" parent="59">
          <mxGeometry width="450" height="40" as="geometry">
            <mxRectangle width="450" height="40" as="alternateBounds" />
          </mxGeometry>
        </mxCell>
        <mxCell id="61" value="" style="shape=tableRow;horizontal=0;startSize=0;swimlaneHead=0;swimlaneBody=0;strokeColor=inherit;top=0;left=0;bottom=0;right=0;collapsible=0;dropTarget=0;fillColor=none;points=[[0,0.5],[1,0.5]];portConstraint=eastwest;rounded=0;align=center;verticalAlign=middle;fontFamily=Helvetica;fontSize=20;fontColor=default;html=1;" vertex="1" parent="48">
          <mxGeometry y="240" width="450" height="40" as="geometry" />
        </mxCell>
        <mxCell id="62" value="" style="shape=partialRectangle;html=1;whiteSpace=wrap;connectable=0;strokeColor=inherit;overflow=hidden;fillColor=none;top=0;left=0;bottom=0;right=0;pointerEvents=1;rounded=0;align=center;verticalAlign=middle;fontFamily=Helvetica;fontSize=20;fontColor=default;" vertex="1" parent="61">
          <mxGeometry width="450" height="40" as="geometry">
            <mxRectangle width="450" height="40" as="alternateBounds" />
          </mxGeometry>
        </mxCell>
        <mxCell id="63" value="" style="shape=tableRow;horizontal=0;startSize=0;swimlaneHead=0;swimlaneBody=0;strokeColor=inherit;top=0;left=0;bottom=0;right=0;collapsible=0;dropTarget=0;fillColor=none;points=[[0,0.5],[1,0.5]];portConstraint=eastwest;rounded=0;align=center;verticalAlign=middle;fontFamily=Helvetica;fontSize=20;fontColor=default;html=1;" vertex="1" parent="48">
          <mxGeometry y="280" width="450" height="40" as="geometry" />
        </mxCell>
        <mxCell id="64" value="" style="shape=partialRectangle;html=1;whiteSpace=wrap;connectable=0;strokeColor=inherit;overflow=hidden;fillColor=none;top=0;left=0;bottom=0;right=0;pointerEvents=1;rounded=0;align=center;verticalAlign=middle;fontFamily=Helvetica;fontSize=20;fontColor=default;" vertex="1" parent="63">
          <mxGeometry width="450" height="40" as="geometry">
            <mxRectangle width="450" height="40" as="alternateBounds" />
          </mxGeometry>
        </mxCell>
        <mxCell id="65" value="" style="shape=tableRow;horizontal=0;startSize=0;swimlaneHead=0;swimlaneBody=0;strokeColor=inherit;top=0;left=0;bottom=0;right=0;collapsible=0;dropTarget=0;fillColor=none;points=[[0,0.5],[1,0.5]];portConstraint=eastwest;rounded=0;align=center;verticalAlign=middle;fontFamily=Helvetica;fontSize=20;fontColor=default;html=1;" vertex="1" parent="48">
          <mxGeometry y="320" width="450" height="40" as="geometry" />
        </mxCell>
        <mxCell id="66" value="" style="shape=partialRectangle;html=1;whiteSpace=wrap;connectable=0;strokeColor=inherit;overflow=hidden;fillColor=none;top=0;left=0;bottom=0;right=0;pointerEvents=1;rounded=0;align=center;verticalAlign=middle;fontFamily=Helvetica;fontSize=20;fontColor=default;" vertex="1" parent="65">
          <mxGeometry width="450" height="40" as="geometry">
            <mxRectangle width="450" height="40" as="alternateBounds" />
          </mxGeometry>
        </mxCell>
        <mxCell id="71" style="shape=tableRow;horizontal=0;startSize=0;swimlaneHead=0;swimlaneBody=0;strokeColor=inherit;top=0;left=0;bottom=0;right=0;collapsible=0;dropTarget=0;fillColor=none;points=[[0,0.5],[1,0.5]];portConstraint=eastwest;rounded=0;align=center;verticalAlign=middle;fontFamily=Helvetica;fontSize=20;fontColor=default;html=1;" vertex="1" parent="48">
          <mxGeometry y="360" width="450" height="40" as="geometry" />
        </mxCell>
        <mxCell id="72" style="shape=partialRectangle;html=1;whiteSpace=wrap;connectable=0;strokeColor=inherit;overflow=hidden;fillColor=none;top=0;left=0;bottom=0;right=0;pointerEvents=1;rounded=0;align=center;verticalAlign=middle;fontFamily=Helvetica;fontSize=20;fontColor=default;" vertex="1" parent="71">
          <mxGeometry width="450" height="40" as="geometry">
            <mxRectangle width="450" height="40" as="alternateBounds" />
          </mxGeometry>
        </mxCell>
        <mxCell id="69" style="shape=tableRow;horizontal=0;startSize=0;swimlaneHead=0;swimlaneBody=0;strokeColor=inherit;top=0;left=0;bottom=0;right=0;collapsible=0;dropTarget=0;fillColor=none;points=[[0,0.5],[1,0.5]];portConstraint=eastwest;rounded=0;align=center;verticalAlign=middle;fontFamily=Helvetica;fontSize=20;fontColor=default;html=1;" vertex="1" parent="48">
          <mxGeometry y="400" width="450" height="40" as="geometry" />
        </mxCell>
        <mxCell id="70" style="shape=partialRectangle;html=1;whiteSpace=wrap;connectable=0;strokeColor=inherit;overflow=hidden;fillColor=none;top=0;left=0;bottom=0;right=0;pointerEvents=1;rounded=0;align=center;verticalAlign=middle;fontFamily=Helvetica;fontSize=20;fontColor=default;" vertex="1" parent="69">
          <mxGeometry width="450" height="40" as="geometry">
            <mxRectangle width="450" height="40" as="alternateBounds" />
          </mxGeometry>
        </mxCell>
        <mxCell id="67" style="shape=tableRow;horizontal=0;startSize=0;swimlaneHead=0;swimlaneBody=0;strokeColor=inherit;top=0;left=0;bottom=0;right=0;collapsible=0;dropTarget=0;fillColor=none;points=[[0,0.5],[1,0.5]];portConstraint=eastwest;rounded=0;align=center;verticalAlign=middle;fontFamily=Helvetica;fontSize=20;fontColor=default;html=1;" vertex="1" parent="48">
          <mxGeometry y="440" width="450" height="40" as="geometry" />
        </mxCell>
        <mxCell id="68" style="shape=partialRectangle;html=1;whiteSpace=wrap;connectable=0;strokeColor=inherit;overflow=hidden;fillColor=none;top=0;left=0;bottom=0;right=0;pointerEvents=1;rounded=0;align=center;verticalAlign=middle;fontFamily=Helvetica;fontSize=20;fontColor=default;" vertex="1" parent="67">
          <mxGeometry width="450" height="40" as="geometry">
            <mxRectangle width="450" height="40" as="alternateBounds" />
          </mxGeometry>
        </mxCell>
        <mxCell id="33" value="" style="shape=table;startSize=0;container=1;collapsible=0;childLayout=tableLayout;rounded=0;align=left;verticalAlign=middle;fontFamily=Helvetica;fontSize=20;fontColor=default;fillColor=none;gradientColor=none;html=1;spacingLeft=0;strokeWidth=3;" vertex="1" parent="1">
          <mxGeometry x="20" y="470" width="540" height="240" as="geometry" />
        </mxCell>
        <mxCell id="34" value="" style="shape=tableRow;horizontal=0;startSize=0;swimlaneHead=0;swimlaneBody=0;strokeColor=inherit;top=0;left=0;bottom=0;right=0;collapsible=0;dropTarget=0;fillColor=none;points=[[0,0.5],[1,0.5]];portConstraint=eastwest;rounded=0;align=center;verticalAlign=middle;fontFamily=Helvetica;fontSize=20;fontColor=default;html=1;" vertex="1" parent="33">
          <mxGeometry width="540" height="40" as="geometry" />
        </mxCell>
        <mxCell id="35" value="Viva La Vida or Death and All His Friends - MP3" style="shape=partialRectangle;html=1;whiteSpace=wrap;connectable=0;strokeColor=inherit;overflow=hidden;fillColor=#45A7D9;top=0;left=0;bottom=0;right=0;pointerEvents=1;rounded=0;align=left;verticalAlign=middle;fontFamily=Helvetica;fontSize=20;fontColor=#FFFFFF;labelBorderColor=none;labelBackgroundColor=none;strokeWidth=7;spacingLeft=6;" vertex="1" parent="34">
          <mxGeometry width="540" height="40" as="geometry">
            <mxRectangle width="540" height="40" as="alternateBounds" />
          </mxGeometry>
        </mxCell>
        <mxCell id="36" value="" style="shape=tableRow;horizontal=0;startSize=0;swimlaneHead=0;swimlaneBody=0;strokeColor=inherit;top=0;left=0;bottom=0;right=0;collapsible=0;dropTarget=0;fillColor=none;points=[[0,0.5],[1,0.5]];portConstraint=eastwest;rounded=0;align=center;verticalAlign=middle;fontFamily=Helvetica;fontSize=20;fontColor=default;html=1;" vertex="1" parent="33">
          <mxGeometry y="40" width="540" height="40" as="geometry" />
        </mxCell>
        <mxCell id="37" value="KING STEPHEN - KINGDOM-FLAC" style="shape=partialRectangle;html=1;whiteSpace=wrap;connectable=0;strokeColor=inherit;overflow=hidden;fillColor=none;top=0;left=0;bottom=0;right=0;pointerEvents=1;rounded=0;align=left;verticalAlign=middle;fontFamily=Helvetica;fontSize=20;fontColor=default;spacingLeft=6;" vertex="1" parent="36">
          <mxGeometry width="540" height="40" as="geometry">
            <mxRectangle width="540" height="40" as="alternateBounds" />
          </mxGeometry>
        </mxCell>
        <mxCell id="38" value="" style="shape=tableRow;horizontal=0;startSize=0;swimlaneHead=0;swimlaneBody=0;strokeColor=inherit;top=0;left=0;bottom=0;right=0;collapsible=0;dropTarget=0;fillColor=none;points=[[0,0.5],[1,0.5]];portConstraint=eastwest;rounded=0;align=center;verticalAlign=middle;fontFamily=Helvetica;fontSize=20;fontColor=default;html=1;" vertex="1" parent="33">
          <mxGeometry y="80" width="540" height="40" as="geometry" />
        </mxCell>
        <mxCell id="39" value="MASTER BOOT RECORD - C-CHKDSK -F" style="shape=partialRectangle;html=1;whiteSpace=wrap;connectable=0;strokeColor=inherit;overflow=hidden;fillColor=none;top=0;left=0;bottom=0;right=0;pointerEvents=1;rounded=0;align=left;verticalAlign=middle;fontFamily=Helvetica;fontSize=20;fontColor=default;spacingLeft=6;" vertex="1" parent="38">
          <mxGeometry width="540" height="40" as="geometry">
            <mxRectangle width="540" height="40" as="alternateBounds" />
          </mxGeometry>
        </mxCell>
        <mxCell id="40" value="" style="shape=tableRow;horizontal=0;startSize=0;swimlaneHead=0;swimlaneBody=0;strokeColor=inherit;top=0;left=0;bottom=0;right=0;collapsible=0;dropTarget=0;fillColor=none;points=[[0,0.5],[1,0.5]];portConstraint=eastwest;rounded=0;align=center;verticalAlign=middle;fontFamily=Helvetica;fontSize=20;fontColor=default;html=1;" vertex="1" parent="33">
          <mxGeometry y="120" width="540" height="40" as="geometry" />
        </mxCell>
        <mxCell id="41" value="Space Engineers OST" style="shape=partialRectangle;html=1;whiteSpace=wrap;connectable=0;strokeColor=inherit;overflow=hidden;fillColor=none;top=0;left=0;bottom=0;right=0;pointerEvents=1;rounded=0;align=left;verticalAlign=middle;fontFamily=Helvetica;fontSize=20;fontColor=default;spacingLeft=6;" vertex="1" parent="40">
          <mxGeometry width="540" height="40" as="geometry">
            <mxRectangle width="540" height="40" as="alternateBounds" />
          </mxGeometry>
        </mxCell>
        <mxCell id="42" value="" style="shape=tableRow;horizontal=0;startSize=0;swimlaneHead=0;swimlaneBody=0;strokeColor=inherit;top=0;left=0;bottom=0;right=0;collapsible=0;dropTarget=0;fillColor=none;points=[[0,0.5],[1,0.5]];portConstraint=eastwest;rounded=0;align=center;verticalAlign=middle;fontFamily=Helvetica;fontSize=20;fontColor=default;html=1;" vertex="1" parent="33">
          <mxGeometry y="160" width="540" height="40" as="geometry" />
        </mxCell>
        <mxCell id="43" value="Music" style="shape=partialRectangle;html=1;whiteSpace=wrap;connectable=0;strokeColor=inherit;overflow=hidden;fillColor=none;top=0;left=0;bottom=0;right=0;pointerEvents=1;rounded=0;align=left;verticalAlign=middle;fontFamily=Helvetica;fontSize=20;fontColor=default;spacingLeft=6;" vertex="1" parent="42">
          <mxGeometry width="540" height="40" as="geometry">
            <mxRectangle width="540" height="40" as="alternateBounds" />
          </mxGeometry>
        </mxCell>
        <mxCell id="44" value="" style="shape=tableRow;horizontal=0;startSize=0;swimlaneHead=0;swimlaneBody=0;strokeColor=inherit;top=0;left=0;bottom=0;right=0;collapsible=0;dropTarget=0;fillColor=none;points=[[0,0.5],[1,0.5]];portConstraint=eastwest;rounded=0;align=center;verticalAlign=middle;fontFamily=Helvetica;fontSize=20;fontColor=default;html=1;" vertex="1" parent="33">
          <mxGeometry y="200" width="540" height="40" as="geometry" />
        </mxCell>
        <mxCell id="45" value="Friday Pilots Club - I LOVE YOU- ROBOT SUPERSTAR!" style="shape=partialRectangle;html=1;whiteSpace=wrap;connectable=0;strokeColor=inherit;overflow=hidden;fillColor=none;top=0;left=0;bottom=0;right=0;pointerEvents=1;rounded=0;align=left;verticalAlign=middle;fontFamily=Helvetica;fontSize=20;fontColor=default;spacingLeft=6;" vertex="1" parent="44">
          <mxGeometry width="540" height="40" as="geometry">
            <mxRectangle width="540" height="40" as="alternateBounds" />
          </mxGeometry>
        </mxCell>
        <mxCell id="5" value="&lt;font style=&quot;font-size: 20px;&quot;&gt;Music&lt;/font&gt;" style="rounded=0;whiteSpace=wrap;html=1;strokeColor=#45A7D9;strokeWidth=4;fillColor=#45A7D9;fontColor=#FFFFFF;" vertex="1" parent="1">
          <mxGeometry x="280" y="50" width="180" height="60" as="geometry" />
        </mxCell>
        <mxCell id="6" value="&lt;font style=&quot;font-size: 20px;&quot;&gt;Appearance&lt;/font&gt;" style="rounded=0;whiteSpace=wrap;html=1;strokeWidth=4;" vertex="1" parent="1">
          <mxGeometry x="470" y="50" width="180" height="60" as="geometry" />
        </mxCell>
        <mxCell id="7" value="&lt;font style=&quot;font-size: 20px;&quot;&gt;Export&lt;/font&gt;" style="rounded=0;whiteSpace=wrap;html=1;strokeWidth=4;" vertex="1" parent="1">
          <mxGeometry x="660" y="50" width="180" height="60" as="geometry" />
        </mxCell>
        <mxCell id="11" value="File Selection" style="text;html=1;strokeColor=none;fillColor=none;align=center;verticalAlign=middle;whiteSpace=wrap;rounded=0;fontSize=20;fontFamily=Helvetica;fontColor=default;" vertex="1" parent="1">
          <mxGeometry x="20" y="170" width="140" height="30" as="geometry" />
        </mxCell>
        <mxCell id="12" value="Folder Selection" style="text;html=1;strokeColor=none;fillColor=none;align=center;verticalAlign=middle;whiteSpace=wrap;rounded=0;fontSize=20;fontFamily=Helvetica;fontColor=default;" vertex="1" parent="1">
          <mxGeometry x="20" y="440" width="160" height="30" as="geometry" />
        </mxCell>
        <mxCell id="13" value="&lt;font style=&quot;font-size: 24px;&quot;&gt;&lt;b&gt;&amp;gt;&lt;/b&gt;&lt;/font&gt;" style="whiteSpace=wrap;html=1;aspect=fixed;rounded=0;align=center;verticalAlign=middle;fontFamily=Helvetica;fontSize=20;fontColor=default;fillColor=none;gradientColor=none;" vertex="1" parent="1">
          <mxGeometry x="600" y="220" width="50" height="50" as="geometry" />
        </mxCell>
        <mxCell id="14" value="&lt;font style=&quot;font-size: 24px;&quot;&gt;&lt;b&gt;&amp;lt;&lt;/b&gt;&lt;/font&gt;" style="whiteSpace=wrap;html=1;aspect=fixed;rounded=0;align=center;verticalAlign=middle;fontFamily=Helvetica;fontSize=20;fontColor=default;fillColor=none;gradientColor=none;" vertex="1" parent="1">
          <mxGeometry x="600" y="290" width="50" height="50" as="geometry" />
        </mxCell>
        <mxCell id="15" value="&lt;font style=&quot;font-size: 24px;&quot;&gt;&lt;b&gt;&amp;lt;&lt;/b&gt;&lt;/font&gt;" style="whiteSpace=wrap;html=1;aspect=fixed;rounded=0;align=center;verticalAlign=middle;fontFamily=Helvetica;fontSize=20;fontColor=default;fillColor=none;gradientColor=none;rotation=90;" vertex="1" parent="1">
          <mxGeometry x="600" y="360" width="50" height="50" as="geometry" />
        </mxCell>
        <mxCell id="16" value="&lt;font style=&quot;font-size: 24px;&quot;&gt;&lt;b&gt;&amp;lt;&lt;/b&gt;&lt;/font&gt;" style="whiteSpace=wrap;html=1;aspect=fixed;rounded=0;align=center;verticalAlign=middle;fontFamily=Helvetica;fontSize=20;fontColor=default;fillColor=none;gradientColor=none;rotation=-90;direction=west;flipH=0;flipV=1;" vertex="1" parent="1">
          <mxGeometry x="600" y="430" width="50" height="50" as="geometry" />
        </mxCell>
        <mxCell id="17" value="&lt;font face=&quot;Courier New&quot; style=&quot;font-size: 24px;&quot;&gt;&lt;b&gt;|&amp;lt;&lt;/b&gt;&lt;/font&gt;" style="whiteSpace=wrap;html=1;aspect=fixed;rounded=0;align=center;verticalAlign=middle;fontFamily=Helvetica;fontSize=20;fontColor=default;fillColor=none;gradientColor=none;rotation=90;" vertex="1" parent="1">
          <mxGeometry x="600" y="500" width="50" height="50" as="geometry" />
        </mxCell>
        <mxCell id="18" value="&lt;font face=&quot;Courier New&quot; style=&quot;font-size: 24px;&quot;&gt;&lt;b&gt;|&amp;lt;&lt;/b&gt;&lt;/font&gt;" style="whiteSpace=wrap;html=1;aspect=fixed;rounded=0;align=center;verticalAlign=middle;fontFamily=Helvetica;fontSize=20;fontColor=default;fillColor=none;gradientColor=none;rotation=-90;direction=west;flipH=0;flipV=1;" vertex="1" parent="1">
          <mxGeometry x="600" y="570" width="50" height="50" as="geometry" />
        </mxCell>
        <mxCell id="20" value="Add Folder" style="rounded=0;whiteSpace=wrap;html=1;align=center;verticalAlign=middle;fontFamily=Helvetica;fontSize=20;fontColor=default;fillColor=none;gradientColor=none;" vertex="1" parent="1">
          <mxGeometry x="450" y="720" width="110" height="40" as="geometry" />
        </mxCell>
        <mxCell id="21" value="Remove Folder" style="rounded=0;whiteSpace=wrap;html=1;align=center;verticalAlign=middle;fontFamily=Helvetica;fontSize=20;fontColor=default;fillColor=none;gradientColor=none;" vertex="1" parent="1">
          <mxGeometry x="290" y="720" width="150" height="40" as="geometry" />
        </mxCell>
        <mxCell id="22" value="" style="shape=table;startSize=0;container=1;collapsible=0;childLayout=tableLayout;rounded=0;align=center;verticalAlign=middle;fontFamily=Helvetica;fontSize=20;fontColor=default;fillColor=none;gradientColor=none;html=1;strokeWidth=3;" vertex="1" parent="1">
          <mxGeometry x="20" y="200" width="540" height="200" as="geometry" />
        </mxCell>
        <mxCell id="23" value="" style="shape=tableRow;horizontal=0;startSize=0;swimlaneHead=0;swimlaneBody=0;strokeColor=inherit;top=0;left=0;bottom=0;right=0;collapsible=0;dropTarget=0;fillColor=none;points=[[0,0.5],[1,0.5]];portConstraint=eastwest;rounded=0;align=center;verticalAlign=middle;fontFamily=Helvetica;fontSize=20;fontColor=default;html=1;" vertex="1" parent="22">
          <mxGeometry width="540" height="40" as="geometry" />
        </mxCell>
        <mxCell id="24" value="Life In Technicolour - Coldplay.mp3" style="shape=partialRectangle;html=1;whiteSpace=wrap;connectable=0;strokeColor=default;overflow=hidden;fillColor=#45A7D9;top=0;left=0;bottom=0;right=0;pointerEvents=1;rounded=0;align=left;verticalAlign=middle;fontFamily=Helvetica;fontSize=20;fontColor=#FFFFFF;spacingLeft=6;strokeWidth=3;" vertex="1" parent="23">
          <mxGeometry width="540" height="40" as="geometry">
            <mxRectangle width="540" height="40" as="alternateBounds" />
          </mxGeometry>
        </mxCell>
        <mxCell id="25" value="" style="shape=tableRow;horizontal=0;startSize=0;swimlaneHead=0;swimlaneBody=0;strokeColor=inherit;top=0;left=0;bottom=0;right=0;collapsible=0;dropTarget=0;fillColor=none;points=[[0,0.5],[1,0.5]];portConstraint=eastwest;rounded=0;align=center;verticalAlign=middle;fontFamily=Helvetica;fontSize=20;fontColor=default;html=1;" vertex="1" parent="22">
          <mxGeometry y="40" width="540" height="40" as="geometry" />
        </mxCell>
        <mxCell id="26" value="Cemeteries of London - Coldplay.mp3" style="shape=partialRectangle;html=1;whiteSpace=wrap;connectable=0;strokeColor=inherit;overflow=hidden;fillColor=none;top=0;left=0;bottom=0;right=0;pointerEvents=1;rounded=0;align=left;verticalAlign=middle;fontFamily=Helvetica;fontSize=20;fontColor=default;spacingLeft=6;" vertex="1" parent="25">
          <mxGeometry width="540" height="40" as="geometry">
            <mxRectangle width="540" height="40" as="alternateBounds" />
          </mxGeometry>
        </mxCell>
        <mxCell id="27" value="" style="shape=tableRow;horizontal=0;startSize=0;swimlaneHead=0;swimlaneBody=0;strokeColor=inherit;top=0;left=0;bottom=0;right=0;collapsible=0;dropTarget=0;fillColor=none;points=[[0,0.5],[1,0.5]];portConstraint=eastwest;rounded=0;align=center;verticalAlign=middle;fontFamily=Helvetica;fontSize=20;fontColor=default;html=1;" vertex="1" parent="22">
          <mxGeometry y="80" width="540" height="40" as="geometry" />
        </mxCell>
        <mxCell id="28" value="Lost! - Coldplay.mp3" style="shape=partialRectangle;html=1;whiteSpace=wrap;connectable=0;strokeColor=inherit;overflow=hidden;fillColor=none;top=0;left=0;bottom=0;right=0;pointerEvents=1;rounded=0;align=left;verticalAlign=middle;fontFamily=Helvetica;fontSize=20;fontColor=default;spacingLeft=6;" vertex="1" parent="27">
          <mxGeometry width="540" height="40" as="geometry">
            <mxRectangle width="540" height="40" as="alternateBounds" />
          </mxGeometry>
        </mxCell>
        <mxCell id="29" value="" style="shape=tableRow;horizontal=0;startSize=0;swimlaneHead=0;swimlaneBody=0;strokeColor=inherit;top=0;left=0;bottom=0;right=0;collapsible=0;dropTarget=0;fillColor=none;points=[[0,0.5],[1,0.5]];portConstraint=eastwest;rounded=0;align=center;verticalAlign=middle;fontFamily=Helvetica;fontSize=20;fontColor=default;html=1;" vertex="1" parent="22">
          <mxGeometry y="120" width="540" height="40" as="geometry" />
        </mxCell>
        <mxCell id="30" value="42 - Coldplay.mp3" style="shape=partialRectangle;html=1;whiteSpace=wrap;connectable=0;strokeColor=inherit;overflow=hidden;fillColor=none;top=0;left=0;bottom=0;right=0;pointerEvents=1;rounded=0;align=left;verticalAlign=middle;fontFamily=Helvetica;fontSize=20;fontColor=default;spacingLeft=6;" vertex="1" parent="29">
          <mxGeometry width="540" height="40" as="geometry">
            <mxRectangle width="540" height="40" as="alternateBounds" />
          </mxGeometry>
        </mxCell>
        <mxCell id="31" value="" style="shape=tableRow;horizontal=0;startSize=0;swimlaneHead=0;swimlaneBody=0;strokeColor=inherit;top=0;left=0;bottom=0;right=0;collapsible=0;dropTarget=0;fillColor=none;points=[[0,0.5],[1,0.5]];portConstraint=eastwest;rounded=0;align=center;verticalAlign=middle;fontFamily=Helvetica;fontSize=20;fontColor=default;html=1;" vertex="1" parent="22">
          <mxGeometry y="160" width="540" height="40" as="geometry" />
        </mxCell>
        <mxCell id="32" value="Lovers in Japan - Coldplay.mp3" style="shape=partialRectangle;html=1;whiteSpace=wrap;connectable=0;strokeColor=inherit;overflow=hidden;fillColor=none;top=0;left=0;bottom=0;right=0;pointerEvents=1;rounded=0;align=left;verticalAlign=middle;fontFamily=Helvetica;fontSize=20;fontColor=default;spacingLeft=6;" vertex="1" parent="31">
          <mxGeometry width="540" height="40" as="geometry">
            <mxRectangle width="540" height="40" as="alternateBounds" />
          </mxGeometry>
        </mxCell>
        <mxCell id="75" value="" style="group" vertex="1" connectable="0" parent="1">
          <mxGeometry x="540" y="200" width="20" height="200" as="geometry" />
        </mxCell>
        <mxCell id="73" value="" style="rounded=0;whiteSpace=wrap;html=1;pointerEvents=1;strokeColor=default;align=left;verticalAlign=middle;fontFamily=Helvetica;fontSize=20;fontColor=default;fillColor=default;strokeWidth=3;" vertex="1" parent="75">
          <mxGeometry width="20" height="200" as="geometry" />
        </mxCell>
        <mxCell id="74" value="" style="rounded=0;whiteSpace=wrap;html=1;pointerEvents=1;strokeColor=inherit;align=left;verticalAlign=middle;fontFamily=Helvetica;fontSize=20;fontColor=default;fillColor=#000000;" vertex="1" parent="75">
          <mxGeometry width="20" height="70" as="geometry" />
        </mxCell>
        <mxCell id="76" value="" style="group" vertex="1" connectable="0" parent="1">
          <mxGeometry x="540" y="470" width="20" height="240" as="geometry" />
        </mxCell>
        <mxCell id="77" value="" style="rounded=0;whiteSpace=wrap;html=1;pointerEvents=1;strokeColor=default;align=left;verticalAlign=middle;fontFamily=Helvetica;fontSize=20;fontColor=default;fillColor=default;strokeWidth=3;" vertex="1" parent="76">
          <mxGeometry width="20" height="240" as="geometry" />
        </mxCell>
        <mxCell id="78" value="" style="rounded=0;whiteSpace=wrap;html=1;pointerEvents=1;strokeColor=inherit;align=left;verticalAlign=middle;fontFamily=Helvetica;fontSize=20;fontColor=default;fillColor=#000000;" vertex="1" parent="76">
          <mxGeometry y="30" width="20" height="60" as="geometry" />
        </mxCell>
        <mxCell id="80" value="" style="group" vertex="1" connectable="0" parent="1">
          <mxGeometry x="1120" y="200" width="20" height="480" as="geometry" />
        </mxCell>
        <mxCell id="81" value="" style="rounded=0;whiteSpace=wrap;html=1;pointerEvents=1;strokeColor=default;align=left;verticalAlign=middle;fontFamily=Helvetica;fontSize=20;fontColor=default;fillColor=default;strokeWidth=3;" vertex="1" parent="80">
          <mxGeometry width="20" height="480" as="geometry" />
        </mxCell>
        <mxCell id="82" value="" style="rounded=0;whiteSpace=wrap;html=1;pointerEvents=1;strokeColor=inherit;align=left;verticalAlign=middle;fontFamily=Helvetica;fontSize=20;fontColor=default;fillColor=#000000;" vertex="1" parent="80">
          <mxGeometry y="30" width="20" height="60" as="geometry" />
        </mxCell>
      </root>
    </mxGraphModel>
  </diagram>
</mxfile>
